<?xml version="1.0" encoding="UTF-8"?>
<svg id="Layer_1" data-name="Layer 1" xmlns="http://www.w3.org/2000/svg" viewBox="0 0 1585 11087.5">
  <defs>
    <style>
      .cls-1, .cls-2, .cls-3, .cls-4, .cls-5 {
        fill: none;
        stroke: #000;
        stroke-miterlimit: 10;
      }

      .cls-2 {
        stroke-dasharray: 0 0 9 9;
      }

      .cls-3 {
        stroke-dasharray: 0 0 9 9;
      }

      .cls-4 {
        stroke-dasharray: 0 0 9.01 9.01;
      }

      .cls-5 {
        stroke-dasharray: 0 0 8.99 8.99;
      }
    </style>
  </defs>
  <g>
    <line class="cls-1" y1=".5" x2="4.5" y2=".5"/>
    <line class="cls-4" x1="13.51" y1=".5" x2="1576.99" y2=".5"/>
    <line class="cls-1" x1="1581.5" y1=".5" x2="1586" y2=".5"/>
  </g>
  <g>
    <line class="cls-1" y1="264.5" x2="4.5" y2="264.5"/>
    <line class="cls-4" x1="13.51" y1="264.5" x2="1576.99" y2="264.5"/>
    <line class="cls-1" x1="1581.5" y1="264.5" x2="1586" y2="264.5"/>
  </g>
  <g>
    <line class="cls-1" y1="528.5" x2="4.5" y2="528.5"/>
    <line class="cls-4" x1="13.51" y1="528.5" x2="1576.99" y2="528.5"/>
    <line class="cls-1" x1="1581.5" y1="528.5" x2="1586" y2="528.5"/>
  </g>
  <g>
    <line class="cls-1" y1="792.5" x2="4.5" y2="792.5"/>
    <line class="cls-4" x1="13.51" y1="792.5" x2="1576.99" y2="792.5"/>
    <line class="cls-1" x1="1581.5" y1="792.5" x2="1586" y2="792.5"/>
  </g>
  <g>
    <line class="cls-1" y1="1056.5" x2="4.5" y2="1056.5"/>
    <line class="cls-4" x1="13.51" y1="1056.5" x2="1576.99" y2="1056.5"/>
    <line class="cls-1" x1="1581.5" y1="1056.5" x2="1586" y2="1056.5"/>
  </g>
  <g>
    <line class="cls-1" y1="1320.5" x2="4.5" y2="1320.5"/>
    <line class="cls-4" x1="13.51" y1="1320.5" x2="1576.99" y2="1320.5"/>
    <line class="cls-1" x1="1581.5" y1="1320.5" x2="1586" y2="1320.5"/>
  </g>
  <g>
    <line class="cls-1" y1="1584.5" x2="4.5" y2="1584.5"/>
    <line class="cls-4" x1="13.51" y1="1584.5" x2="1576.99" y2="1584.5"/>
    <line class="cls-1" x1="1581.5" y1="1584.5" x2="1586" y2="1584.5"/>
  </g>
  <g>
    <line class="cls-1" y1="1848.5" x2="4.5" y2="1848.5"/>
    <line class="cls-4" x1="13.51" y1="1848.5" x2="1576.99" y2="1848.5"/>
    <line class="cls-1" x1="1581.5" y1="1848.5" x2="1586" y2="1848.5"/>
  </g>
  <g>
    <line class="cls-1" y1="2112.5" x2="4.5" y2="2112.5"/>
    <line class="cls-4" x1="13.51" y1="2112.5" x2="1576.99" y2="2112.5"/>
    <line class="cls-1" x1="1581.5" y1="2112.5" x2="1586" y2="2112.5"/>
  </g>
  <g>
    <line class="cls-1" y1="2376.5" x2="4.5" y2="2376.5"/>
    <line class="cls-4" x1="13.51" y1="2376.5" x2="1576.99" y2="2376.5"/>
    <line class="cls-1" x1="1581.5" y1="2376.5" x2="1586" y2="2376.5"/>
  </g>
  <g>
    <line class="cls-1" y1="2640.5" x2="4.5" y2="2640.5"/>
    <line class="cls-4" x1="13.51" y1="2640.5" x2="1576.99" y2="2640.5"/>
    <line class="cls-1" x1="1581.5" y1="2640.5" x2="1586" y2="2640.5"/>
  </g>
  <g>
    <line class="cls-1" y1="2904.5" x2="4.5" y2="2904.5"/>
    <line class="cls-4" x1="13.51" y1="2904.5" x2="1576.99" y2="2904.5"/>
    <line class="cls-1" x1="1581.5" y1="2904.5" x2="1586" y2="2904.5"/>
  </g>
  <g>
    <line class="cls-1" y1="3168.5" x2="4.5" y2="3168.5"/>
    <line class="cls-4" x1="13.51" y1="3168.5" x2="1576.99" y2="3168.5"/>
    <line class="cls-1" x1="1581.5" y1="3168.5" x2="1586" y2="3168.5"/>
  </g>
  <g>
    <line class="cls-1" y1="3432.5" x2="4.5" y2="3432.5"/>
    <line class="cls-4" x1="13.51" y1="3432.5" x2="1576.99" y2="3432.5"/>
    <line class="cls-1" x1="1581.5" y1="3432.5" x2="1586" y2="3432.5"/>
  </g>
  <g>
    <line class="cls-1" y1="3696.5" x2="4.5" y2="3696.5"/>
    <line class="cls-4" x1="13.51" y1="3696.5" x2="1576.99" y2="3696.5"/>
    <line class="cls-1" x1="1581.5" y1="3696.5" x2="1586" y2="3696.5"/>
  </g>
  <g>
    <line class="cls-1" y1="3960.5" x2="4.5" y2="3960.5"/>
    <line class="cls-4" x1="13.51" y1="3960.5" x2="1576.99" y2="3960.5"/>
    <line class="cls-1" x1="1581.5" y1="3960.5" x2="1586" y2="3960.5"/>
  </g>
  <g>
    <line class="cls-1" y1="4224.5" x2="4.5" y2="4224.5"/>
    <line class="cls-4" x1="13.51" y1="4224.5" x2="1576.99" y2="4224.5"/>
    <line class="cls-1" x1="1581.5" y1="4224.5" x2="1586" y2="4224.5"/>
  </g>
  <g>
    <line class="cls-1" y1="4488.5" x2="4.5" y2="4488.5"/>
    <line class="cls-4" x1="13.51" y1="4488.5" x2="1576.99" y2="4488.5"/>
    <line class="cls-1" x1="1581.5" y1="4488.5" x2="1586" y2="4488.5"/>
  </g>
  <g>
    <line class="cls-1" y1="4752.5" x2="4.5" y2="4752.5"/>
    <line class="cls-4" x1="13.51" y1="4752.5" x2="1576.99" y2="4752.5"/>
    <line class="cls-1" x1="1581.5" y1="4752.5" x2="1586" y2="4752.5"/>
  </g>
  <g>
    <line class="cls-1" y1="5016.5" x2="4.5" y2="5016.5"/>
    <line class="cls-4" x1="13.51" y1="5016.5" x2="1576.99" y2="5016.5"/>
    <line class="cls-1" x1="1581.5" y1="5016.5" x2="1586" y2="5016.5"/>
  </g>
  <g>
    <line class="cls-1" y1="5280.5" x2="4.5" y2="5280.5"/>
    <line class="cls-4" x1="13.51" y1="5280.5" x2="1576.99" y2="5280.5"/>
    <line class="cls-1" x1="1581.5" y1="5280.5" x2="1586" y2="5280.5"/>
  </g>
  <g>
    <line class="cls-1" y1="5544.5" x2="4.5" y2="5544.5"/>
    <line class="cls-4" x1="13.51" y1="5544.5" x2="1576.99" y2="5544.5"/>
    <line class="cls-1" x1="1581.5" y1="5544.5" x2="1586" y2="5544.5"/>
  </g>
  <g>
    <line class="cls-1" y1="5808.5" x2="4.5" y2="5808.5"/>
    <line class="cls-4" x1="13.51" y1="5808.5" x2="1576.99" y2="5808.5"/>
    <line class="cls-1" x1="1581.5" y1="5808.5" x2="1586" y2="5808.5"/>
  </g>
  <g>
    <line class="cls-1" y1="6072.5" x2="4.5" y2="6072.5"/>
    <line class="cls-4" x1="13.51" y1="6072.5" x2="1576.99" y2="6072.5"/>
    <line class="cls-1" x1="1581.5" y1="6072.5" x2="1586" y2="6072.5"/>
  </g>
  <g>
    <line class="cls-1" y1="6336.5" x2="4.5" y2="6336.5"/>
    <line class="cls-4" x1="13.51" y1="6336.5" x2="1576.99" y2="6336.5"/>
    <line class="cls-1" x1="1581.5" y1="6336.5" x2="1586" y2="6336.5"/>
  </g>
  <g>
    <line class="cls-1" x1="792.5" y1="1" x2="792.5" y2="5.5"/>
    <line class="cls-2" x1="792.5" y1="14.5" x2="792.5" y2="11077.53"/>
    <line class="cls-1" x1="792.5" y1="11082.03" x2="792.5" y2="11086.53"/>
  </g>
  <g>
    <line class="cls-1" x1="528.5" y1="1" x2="528.5" y2="5.5"/>
    <line class="cls-2" x1="528.5" y1="14.5" x2="528.5" y2="11077.53"/>
    <line class="cls-1" x1="528.5" y1="11082.03" x2="528.5" y2="11086.53"/>
  </g>
  <g>
    <line class="cls-1" x1="264.5" y1="1" x2="264.5" y2="5.5"/>
    <line class="cls-2" x1="264.5" y1="14.5" x2="264.5" y2="11077.53"/>
    <line class="cls-1" x1="264.5" y1="11082.03" x2="264.5" y2="11086.53"/>
  </g>
  <g>
    <line class="cls-1" x1=".5" y1="1" x2=".5" y2="5.5"/>
    <line class="cls-2" x1=".5" y1="14.5" x2=".5" y2="11077.53"/>
    <line class="cls-1" x1=".5" y1="11082.03" x2=".5" y2="11086.53"/>
  </g>
  <g>
    <line class="cls-1" x1="1584.5" x2="1584.5" y2="4.5"/>
    <line class="cls-3" x1="1584.5" y1="13.5" x2="1584.5" y2="6328"/>
    <line class="cls-1" x1="1584.5" y1="6332.5" x2="1584.5" y2="6337"/>
  </g>
  <g>
    <line class="cls-1" y1="6600.5" x2="4.5" y2="6600.5"/>
    <line class="cls-4" x1="13.51" y1="6600.5" x2="1576.99" y2="6600.5"/>
    <line class="cls-1" x1="1581.5" y1="6600.5" x2="1586" y2="6600.5"/>
  </g>
  <g>
    <line class="cls-1" y1="6864.5" x2="4.5" y2="6864.5"/>
    <line class="cls-4" x1="13.51" y1="6864.5" x2="1576.99" y2="6864.5"/>
    <line class="cls-1" x1="1581.5" y1="6864.5" x2="1586" y2="6864.5"/>
  </g>
  <g>
    <line class="cls-1" y1="7128.5" x2="4.5" y2="7128.5"/>
    <line class="cls-4" x1="13.51" y1="7128.5" x2="1576.99" y2="7128.5"/>
    <line class="cls-1" x1="1581.5" y1="7128.5" x2="1586" y2="7128.5"/>
  </g>
  <g>
    <line class="cls-1" y1="7392.5" x2="4.5" y2="7392.5"/>
    <line class="cls-4" x1="13.51" y1="7392.5" x2="1576.99" y2="7392.5"/>
    <line class="cls-1" x1="1581.5" y1="7392.5" x2="1586" y2="7392.5"/>
  </g>
  <g>
    <line class="cls-1" y1="7656.5" x2="4.5" y2="7656.5"/>
    <line class="cls-4" x1="13.51" y1="7656.5" x2="1576.99" y2="7656.5"/>
    <line class="cls-1" x1="1581.5" y1="7656.5" x2="1586" y2="7656.5"/>
  </g>
  <g>
    <line class="cls-1" y1="7920.5" x2="4.5" y2="7920.5"/>
    <line class="cls-4" x1="13.51" y1="7920.5" x2="1576.99" y2="7920.5"/>
    <line class="cls-1" x1="1581.5" y1="7920.5" x2="1586" y2="7920.5"/>
  </g>
  <g>
    <line class="cls-1" y1="8184.5" x2="4.5" y2="8184.5"/>
    <line class="cls-4" x1="13.51" y1="8184.5" x2="1576.99" y2="8184.5"/>
    <line class="cls-1" x1="1581.5" y1="8184.5" x2="1586" y2="8184.5"/>
  </g>
  <g>
    <line class="cls-1" y1="8448.5" x2="4.5" y2="8448.5"/>
    <line class="cls-4" x1="13.51" y1="8448.5" x2="1576.99" y2="8448.5"/>
    <line class="cls-1" x1="1581.5" y1="8448.5" x2="1586" y2="8448.5"/>
  </g>
  <g>
    <line class="cls-1" y1="8712.5" x2="4.5" y2="8712.5"/>
    <line class="cls-4" x1="13.51" y1="8712.5" x2="1576.99" y2="8712.5"/>
    <line class="cls-1" x1="1581.5" y1="8712.5" x2="1586" y2="8712.5"/>
  </g>
  <g>
    <line class="cls-1" y1="8976.5" x2="4.5" y2="8976.5"/>
    <line class="cls-4" x1="13.51" y1="8976.5" x2="1576.99" y2="8976.5"/>
    <line class="cls-1" x1="1581.5" y1="8976.5" x2="1586" y2="8976.5"/>
  </g>
  <g>
    <line class="cls-1" y1="9239.5" x2="4.5" y2="9239.5"/>
    <line class="cls-4" x1="13.51" y1="9239.5" x2="1576.99" y2="9239.5"/>
    <line class="cls-1" x1="1581.5" y1="9239.5" x2="1586" y2="9239.5"/>
  </g>
  <g>
    <line class="cls-1" y1="9503.5" x2="4.5" y2="9503.5"/>
    <line class="cls-4" x1="13.51" y1="9503.5" x2="1576.99" y2="9503.5"/>
    <line class="cls-1" x1="1581.5" y1="9503.5" x2="1586" y2="9503.5"/>
  </g>
  <g>
    <line class="cls-1" y1="9767.5" x2="4.5" y2="9767.5"/>
    <line class="cls-4" x1="13.51" y1="9767.5" x2="1576.99" y2="9767.5"/>
    <line class="cls-1" x1="1581.5" y1="9767.5" x2="1586" y2="9767.5"/>
  </g>
  <g>
    <line class="cls-1" y1="10031.5" x2="4.5" y2="10031.5"/>
    <line class="cls-4" x1="13.51" y1="10031.5" x2="1576.99" y2="10031.5"/>
    <line class="cls-1" x1="1581.5" y1="10031.5" x2="1586" y2="10031.5"/>
  </g>
  <g>
    <line class="cls-1" y1="10295.5" x2="4.5" y2="10295.5"/>
    <line class="cls-4" x1="13.51" y1="10295.5" x2="1576.99" y2="10295.5"/>
    <line class="cls-1" x1="1581.5" y1="10295.5" x2="1586" y2="10295.5"/>
  </g>
  <g>
    <line class="cls-1" y1="10559.5" x2="4.5" y2="10559.5"/>
    <line class="cls-4" x1="13.51" y1="10559.5" x2="1576.99" y2="10559.5"/>
    <line class="cls-1" x1="1581.5" y1="10559.5" x2="1586" y2="10559.5"/>
  </g>
  <g>
    <line class="cls-1" y1="10823.5" x2="4.5" y2="10823.5"/>
    <line class="cls-4" x1="13.51" y1="10823.5" x2="1576.99" y2="10823.5"/>
    <line class="cls-1" x1="1581.5" y1="10823.5" x2="1586" y2="10823.5"/>
  </g>
  <g>
    <line class="cls-1" y1="11087.5" x2="4.5" y2="11087.5"/>
    <line class="cls-4" x1="13.51" y1="11087.5" x2="1576.99" y2="11087.5"/>
    <line class="cls-1" x1="1581.5" y1="11087.5" x2="1586" y2="11087.5"/>
  </g>
  <g>
    <line class="cls-1" x1="1584.5" y1="1770.63" x2="1584.5" y2="1775.13"/>
    <line class="cls-5" x1="1584.5" y1="1784.12" x2="1584.5" y2="11079"/>
    <line class="cls-1" x1="1584.5" y1="11083.5" x2="1584.5" y2="11088"/>
  </g>
  <g>
    <line class="cls-1" x1="1320.5" y1="1" x2="1320.5" y2="5.5"/>
    <line class="cls-2" x1="1320.5" y1="14.5" x2="1320.5" y2="11077.53"/>
    <line class="cls-1" x1="1320.5" y1="11082.03" x2="1320.5" y2="11086.53"/>
  </g>
  <g>
    <line class="cls-1" x1="1056.5" y1="1" x2="1056.5" y2="5.5"/>
    <line class="cls-2" x1="1056.5" y1="14.5" x2="1056.5" y2="11077.53"/>
    <line class="cls-1" x1="1056.5" y1="11082.03" x2="1056.5" y2="11086.53"/>
  </g>
</svg>